<svg width="232" height="121" viewBox="0 0 232 121" fill="none" xmlns="http://www.w3.org/2000/svg">
<g clip-path="url(#clip0_2_403)">
<path d="M145.223 17.4101L137.792 34.7377L123.061 68.496L122.882 68.9085L109.091 36.4518L94.0541 71H79.5751L101.731 19.3411L115.849 19.4068L122.972 37.6052L130.602 18.119L137.688 0.0290298L145.223 17.4101Z" fill="url(#paint0_linear_2_403)"/>
<path d="M160 17.4773L137.555 68.9085H122.882L123.061 68.496L137.792 34.7377L145.223 17.4101L160 17.4773Z" fill="url(#paint1_linear_2_403)"/>
<path d="M101.731 19.3411L79.5751 71L72 53.9184L94.1958 1.96008L100.691 16.9456L101.731 19.3411Z" fill="url(#paint2_linear_2_403)"/>
<path d="M115.849 19.4068L101.731 19.3411L100.691 16.9456L94.1957 1.96008H109.021L115.849 19.4068Z" fill="url(#paint3_linear_2_403)"/>
<path d="M160 17.4773L145.223 17.4101L137.688 0.0290298H152.516L160 17.4773Z" fill="url(#paint4_linear_2_403)"/>
<path d="M130.602 18.1189L122.972 37.6052L115.849 19.4068L109.021 1.96008H123.515L130.602 18.1189Z" fill="url(#paint5_linear_2_403)"/>
</g>
<g clip-path="url(#clip1_2_403)">
<path d="M24.1912 120.307H17.4281L7.15641 104.468V120.307H0V91.0355H7.15641L17.0313 106.693V91.0355H24.1912V120.307Z" fill="white"/>
<path d="M62.1557 91L69.2042 102.133L76.0752 91H83.0889V120.271H75.8977V104.505L69.5627 113.77H68.4523L62.4446 104.505V120.271H55.6084V91H62.1557Z" fill="white"/>
<path d="M100.158 115.241H93.2526L91.9995 120.267H84.234L93.2178 91H100.447L109.609 120.271H101.415L100.158 115.241ZM98.7626 108.132L96.9387 99.5483H96.8308L94.7911 108.132H98.7626Z" fill="white"/>
<path d="M121.342 91.0349C122.748 91.0349 124.21 91.2515 125.725 91.6812C127.239 92.1109 128.607 92.8899 129.821 94.0148C131.04 95.1396 132.035 96.6593 132.808 98.5771C133.584 100.491 133.97 102.933 133.97 105.903C133.97 108.32 133.647 110.434 133.003 112.24C132.359 114.049 131.496 115.551 130.41 116.746C129.324 117.944 128.029 118.835 126.529 119.422C125.025 120.009 123.417 120.302 121.697 120.302H111.178V91.0349H121.342ZM118.516 98.1125V111.974H120.663C121.401 111.974 122.15 111.883 122.902 111.705C123.653 111.527 124.332 111.178 124.941 110.664C125.55 110.151 126.045 109.462 126.428 108.6C126.81 107.737 126.998 106.65 126.998 105.33C126.998 103.943 126.821 102.787 126.462 101.864C126.104 100.942 125.627 100.202 125.032 99.6391C124.437 99.0767 123.751 98.6819 122.975 98.4549C122.198 98.2278 121.429 98.1125 120.667 98.1125H118.516Z" fill="white"/>
<path d="M144.03 112.98H153.619V120.271H136.658V91H144.03V112.98Z" fill="white"/>
<path d="M170.654 115.241H163.748L162.495 120.267H154.73L163.71 91H170.939L180.101 120.271H171.907L170.654 115.241ZM169.258 108.132L167.434 99.5483H167.326L165.287 108.132H169.258Z" fill="white"/>
<path d="M205.792 120.306H199.029L188.761 104.467V120.306H181.604V91.0349H188.761L198.636 106.692V91.0349H205.792V120.306Z" fill="white"/>
<path d="M218.89 91.0349C220.296 91.0349 221.758 91.2515 223.272 91.6812C224.786 92.1109 226.154 92.8899 227.369 94.0148C228.587 95.1396 229.583 96.6593 230.356 98.5771C231.132 100.491 231.518 102.933 231.518 105.903C231.518 108.32 231.195 110.434 230.551 112.24C229.907 114.049 229.043 115.551 227.957 116.746C226.871 117.944 225.577 118.835 224.076 119.422C222.573 120.009 220.965 120.302 219.245 120.302H208.726V91.0349H218.89ZM216.064 98.1125V111.974H218.211C218.949 111.974 219.698 111.883 220.449 111.705C221.201 111.527 221.88 111.178 222.489 110.664C223.098 110.151 223.593 109.462 223.975 108.6C224.358 107.737 224.546 106.65 224.546 105.33C224.546 103.943 224.369 102.787 224.01 101.864C223.652 100.942 223.175 100.202 222.58 99.6391C221.984 99.0767 221.299 98.6819 220.523 98.4549C219.746 98.2278 218.977 98.1125 218.215 98.1125H216.064Z" fill="white"/>
<path d="M26.7147 91.0035V120.348H52.8203V91.0035H26.7147ZM46.903 113.696H32.632V97.6549H46.903V113.696Z" fill="white"/>
<path d="M33.6762 91.0035H26.7147V120.348H33.6762V91.0035Z" fill="white"/>
<path d="M52.8203 91.0035H45.8588V120.348H52.8203V91.0035Z" fill="white"/>
<path d="M26.7151 91.0031V97.9898H52.8207V91.0031H26.7151Z" fill="white"/>
<path d="M26.7151 113.361V120.347H52.8207V113.361H26.7151Z" fill="white"/>
</g>
<defs>
<linearGradient id="paint0_linear_2_403" x1="102.581" y1="74.9767" x2="126.82" y2="2.57506" gradientUnits="userSpaceOnUse">
<stop stop-color="white" stop-opacity="0.37"/>
<stop offset="1" stop-color="white"/>
</linearGradient>
<linearGradient id="paint1_linear_2_403" x1="154.054" y1="18.9334" x2="134.011" y2="71.0666" gradientUnits="userSpaceOnUse">
<stop stop-color="white" stop-opacity="0.64"/>
<stop offset="0.775" stop-color="white" stop-opacity="0.27"/>
<stop offset="1" stop-color="white" stop-opacity="0"/>
</linearGradient>
<linearGradient id="paint2_linear_2_403" x1="96.9678" y1="4.00234" x2="60.4624" y2="60.7333" gradientUnits="userSpaceOnUse">
<stop stop-color="white" stop-opacity="0.64"/>
<stop offset="0.775" stop-color="white" stop-opacity="0.27"/>
<stop offset="1" stop-color="white" stop-opacity="0"/>
</linearGradient>
<linearGradient id="paint3_linear_2_403" x1="105.022" y1="1.96008" x2="105.022" y2="19.4068" gradientUnits="userSpaceOnUse">
<stop stop-color="white"/>
<stop offset="1" stop-color="white" stop-opacity="0.06"/>
</linearGradient>
<linearGradient id="paint4_linear_2_403" x1="148.844" y1="0.0290298" x2="148.844" y2="17.4773" gradientUnits="userSpaceOnUse">
<stop stop-color="white"/>
<stop offset="1" stop-color="white" stop-opacity="0.06"/>
</linearGradient>
<linearGradient id="paint5_linear_2_403" x1="118.054" y1="37.2725" x2="120.46" y2="1.75346" gradientUnits="userSpaceOnUse">
<stop stop-color="white" stop-opacity="0.21"/>
<stop offset="1" stop-color="white" stop-opacity="0.4"/>
</linearGradient>
<clipPath id="clip0_2_403">
<rect width="88" height="71" fill="white" transform="translate(72)"/>
</clipPath>
<clipPath id="clip1_2_403">
<rect width="231.522" height="29.3478" fill="white" transform="translate(0 91)"/>
</clipPath>
</defs>
</svg>
