<svg width="116" height="19" viewBox="0 0 116 19" fill="none" xmlns="http://www.w3.org/2000/svg">
<g clip-path="url(#clip0_2_237)">
<path d="M19.4091 4.6377L17.4395 9.25344L13.5348 18.246L13.4873 18.3559L9.83166 9.71005L5.84587 18.913H2.00793L7.88067 5.1521L11.6229 5.1696L13.5111 10.0173L15.5336 4.82653L17.4119 0.00772095L19.4091 4.6377Z" fill="url(#paint0_linear_2_237)"/>
<path d="M23.3261 4.65563L17.3766 18.3559H13.4873L13.5347 18.2461L17.4395 9.25346L19.4091 4.63773L23.3261 4.65563Z" fill="url(#paint1_linear_2_237)"/>
<path d="M7.88065 5.15211L2.00792 18.913L0 14.3628L5.88341 0.522125L7.6051 4.51399L7.88065 5.15211Z" fill="url(#paint2_linear_2_237)"/>
<path d="M11.6229 5.1696L7.88067 5.15211L7.60512 4.51399L5.88342 0.522125H9.81308L11.6229 5.1696Z" fill="url(#paint3_linear_2_237)"/>
<path d="M23.3261 4.65561L19.4091 4.6377L17.4119 0.00772095H21.3423L23.3261 4.65561Z" fill="url(#paint4_linear_2_237)"/>
<path d="M15.5336 4.82654L13.511 10.0173L11.6229 5.1696L9.81305 0.522125H13.6549L15.5336 4.82654Z" fill="url(#paint5_linear_2_237)"/>
</g>
<g clip-path="url(#clip1_2_237)">
<path d="M35.8322 15.1145H33.2171L29.2454 8.99007V15.1145H26.4783V3.79636H29.2454L33.0637 9.85051V3.79636H35.8322V15.1145Z" fill="black"/>
<path d="M50.5118 3.78262L53.2372 8.08753L55.894 3.78262H58.606V15.1007H55.8253V9.0047L53.3758 12.5869H52.9465L50.6235 9.0047V15.1007H47.9802V3.78262H50.5118Z" fill="black"/>
<path d="M65.2062 13.1556H62.536L62.0514 15.0994H59.0488L62.5225 3.78262H65.3179L68.8603 15.1007H65.6921L65.2062 13.1556ZM64.6665 10.4068L63.9613 7.08796H63.9195L63.1308 10.4068H64.6665Z" fill="black"/>
<path d="M73.3973 3.79614C73.941 3.79614 74.5063 3.87989 75.0918 4.04604C75.6772 4.21218 76.2061 4.5134 76.6759 4.94835C77.1469 5.3833 77.5318 5.97088 77.8306 6.71246C78.1308 7.45268 78.2802 8.39687 78.2802 9.54502C78.2802 10.4798 78.155 11.297 77.906 11.9953C77.657 12.695 77.3232 13.2759 76.9033 13.7378C76.4834 14.2011 75.9827 14.5456 75.4027 14.7725C74.8212 14.9994 74.1994 15.1129 73.5346 15.1129H69.4673V3.79614H73.3973ZM72.3044 6.5328V11.8927H73.1348C73.4202 11.8927 73.7095 11.8575 74.0002 11.7887C74.2909 11.7198 74.5534 11.5847 74.7889 11.3861C75.0245 11.1876 75.2156 10.9215 75.3636 10.5878C75.5117 10.2542 75.5843 9.83409 75.5843 9.3235C75.5843 8.78724 75.5157 8.34014 75.3771 7.98353C75.2385 7.62693 75.0541 7.34057 74.8239 7.12309C74.5938 6.90562 74.3286 6.75298 74.0285 6.66518C73.7284 6.57738 73.4309 6.5328 73.1362 6.5328H72.3044Z" fill="black"/>
<path d="M82.1698 12.2817H85.8777V15.1007H79.3192V3.78262H82.1698V12.2817Z" fill="black"/>
<path d="M92.4645 13.1556H89.7942L89.3097 15.0994H86.307L89.7794 3.78262H92.5748L96.1172 15.1007H92.949L92.4645 13.1556ZM91.9248 10.4068L91.2195 7.08796H91.1778L90.3891 10.4068H91.9248Z" fill="black"/>
<path d="M106.051 15.1143H103.436L99.4658 8.98986V15.1143H96.6986V3.79614H99.4658L103.284 9.8503V3.79614H106.051V15.1143Z" fill="black"/>
<path d="M111.116 3.79614C111.66 3.79614 112.225 3.87989 112.81 4.04604C113.396 4.21218 113.925 4.5134 114.394 4.94835C114.865 5.3833 115.25 5.97088 115.549 6.71246C115.849 7.45268 115.999 8.39687 115.999 9.54502C115.999 10.4798 115.873 11.297 115.625 11.9953C115.376 12.695 115.042 13.2759 114.622 13.7378C114.202 14.2011 113.701 14.5456 113.121 14.7725C112.54 14.9994 111.918 15.1129 111.253 15.1129H107.186V3.79614H111.116ZM110.023 6.5328V11.8927H110.853C111.139 11.8927 111.428 11.8575 111.719 11.7887C112.009 11.7198 112.272 11.5847 112.507 11.3861C112.743 11.1876 112.934 10.9215 113.082 10.5878C113.23 10.2542 113.303 9.83409 113.303 9.3235C113.303 8.78724 113.234 8.34014 113.096 7.98353C112.957 7.62693 112.773 7.34057 112.542 7.12309C112.312 6.90562 112.047 6.75298 111.747 6.66518C111.447 6.57738 111.149 6.5328 110.855 6.5328H110.023Z" fill="black"/>
<path d="M36.808 3.78397V15.1304H46.9021V3.78397H36.808ZM44.6141 12.5586H39.096V6.35583H44.6141V12.5586Z" fill="black"/>
<path d="M39.4998 3.78397H36.808V15.1304H39.4998V3.78397Z" fill="black"/>
<path d="M46.9021 3.78397H44.2103V15.1304H46.9021V3.78397Z" fill="black"/>
<path d="M36.8081 3.78381V6.48535L46.9023 6.48535V3.78381L36.8081 3.78381Z" fill="black"/>
<path d="M36.8081 12.4287V15.1303H46.9023V12.4287H36.8081Z" fill="black"/>
</g>
<defs>
<linearGradient id="paint0_linear_2_237" x1="8.10606" y1="19.9724" x2="14.5882" y2="0.705202" gradientUnits="userSpaceOnUse">
<stop stop-color="#6DF5CE"/>
<stop offset="1" stop-color="#23E4AD"/>
</linearGradient>
<linearGradient id="paint1_linear_2_237" x1="21.7499" y1="5.04352" x2="16.3912" y2="18.9131" gradientUnits="userSpaceOnUse">
<stop stop-color="#00BA85"/>
<stop offset="0.775" stop-color="#11CC97"/>
<stop offset="1" stop-color="#4CEFC1"/>
</linearGradient>
<linearGradient id="paint2_linear_2_237" x1="3.94033" y1="0.522125" x2="3.94033" y2="18.913" gradientUnits="userSpaceOnUse">
<stop stop-color="#00BA85"/>
<stop offset="0.775" stop-color="#11CC97"/>
<stop offset="1" stop-color="#4CEFC1"/>
</linearGradient>
<linearGradient id="paint3_linear_2_237" x1="8.75318" y1="0.522125" x2="8.75318" y2="5.1696" gradientUnits="userSpaceOnUse">
<stop stop-color="#3BF2BE"/>
<stop offset="1" stop-color="#00AC7B"/>
</linearGradient>
<linearGradient id="paint4_linear_2_237" x1="20.369" y1="0.00772095" x2="20.369" y2="4.65561" gradientUnits="userSpaceOnUse">
<stop stop-color="#3BF2BE"/>
<stop offset="1" stop-color="#00AC7B"/>
</linearGradient>
<linearGradient id="paint5_linear_2_237" x1="12.2076" y1="9.92868" x2="12.8515" y2="0.467514" gradientUnits="userSpaceOnUse">
<stop stop-color="#23E4AD"/>
<stop offset="1" stop-color="#008B64"/>
</linearGradient>
<clipPath id="clip0_2_237">
<rect width="23.3261" height="18.913" fill="white"/>
</clipPath>
<clipPath id="clip1_2_237">
<rect width="89.5217" height="11.3478" fill="white" transform="translate(26.4783 3.78262)"/>
</clipPath>
</defs>
</svg>
